<svg width="24" height="24" viewBox="0 0 24 24" fill="none" xmlns="http://www.w3.org/2000/svg">
<path fill-rule="evenodd" clip-rule="evenodd" d="M19.1573 11.8016C19.2651 11.9106 19.2651 12.1051 19.1573 12.2141C16.4075 14.9943 13.658 17.7742 10.9083 20.5544C10.2836 21.1861 10.2836 22.2029 10.9083 22.8345V22.8345C11.5429 23.4761 12.5792 23.4761 13.2137 22.8345C15.9551 20.0629 18.6962 17.2914 21.4376 14.5196C22.8039 13.1382 22.8039 10.8779 21.4376 9.49647L16.4486 4.45226C15.8141 3.81069 14.7778 3.81069 14.1432 4.45226V4.45226C13.5185 5.08393 13.5185 6.10074 14.1432 6.7324L15.2956 7.89749L16.1264 8.73751L19.157 11.8017C19.1571 11.8018 19.1573 11.8018 19.1573 11.8016V11.8016Z" fill="white"/>
<path fill-rule="evenodd" clip-rule="evenodd" d="M2.55451 9.48038C1.18821 10.8618 1.18821 13.1221 2.55451 14.5035L7.54346 19.5477C8.17802 20.1893 9.2143 20.1893 9.84885 19.5477V19.5477C10.4736 18.9161 10.4736 17.8993 9.84885 17.2676L4.83479 12.198C4.72702 12.089 4.72702 11.8945 4.83479 11.7855L6.87977 9.71791L11.9311 4.61068L13.0838 3.44522C13.7085 2.81357 13.7084 1.79677 13.0837 1.16518V1.16518C12.4491 0.523737 11.413 0.52378 10.7786 1.16527L2.55451 9.48038Z" fill="white"/>
</svg>
